HIERARCHY
ROOT Hips
{
    OFFSET   0.000000   0.000000   0.000000
    CHANNELS 6 Xposition Yposition Zposition Zrotation Xrotation Yrotation
    JOINT Chest
    {
        OFFSET   0.000000   8.007240   0.000000
        CHANNELS 3 Zrotation Xrotation Yrotation
        JOINT Chest2
        {
            OFFSET   0.000000  22.077100   0.000000
            CHANNELS 3 Zrotation Xrotation Yrotation
            JOINT Neck
            {
                OFFSET   0.000000  23.254800   0.000000
                CHANNELS 3 Zrotation Xrotation Yrotation
                JOINT Head
                {
                    OFFSET   0.000000  14.370000   1.956600
                    CHANNELS 3 Zrotation Xrotation Yrotation
                    End Site
                    {
                        OFFSET   0.000000  19.566000   0.000000
                    }
                }
            }
            JOINT LeftCollar
            {
                OFFSET   3.911900  19.017000  -0.467064
                CHANNELS 3 Zrotation Xrotation Yrotation
                JOINT LeftShoulder
                {
                    OFFSET  10.383700   0.000000   0.000000
                    CHANNELS 3 Zrotation Xrotation Yrotation
                    JOINT LeftElbow
                    {
                        OFFSET  26.662100   0.001476   0.000517
                        CHANNELS 3 Zrotation Xrotation Yrotation
                        JOINT LeftWrist
                        {
                            OFFSET  28.869000  -0.000025  -0.000106
                            CHANNELS 3 Zrotation Xrotation Yrotation
                            JOINT LeftFinger0
                            {
                                OFFSET   2.044660  -2.323460   3.252850
                                CHANNELS 3 Zrotation Xrotation Yrotation
                                JOINT LeftFinger01
                                {
                                    OFFSET   3.088130   0.000000   0.000000
                                    CHANNELS 3 Zrotation Xrotation Yrotation
                                    JOINT LeftFinger02
                                    {
                                        OFFSET   2.639460   0.000000   0.000000
                                        CHANNELS 3 Zrotation Xrotation Yrotation
                                        End Site
                                        {
                                            OFFSET   2.582190   0.000000   0.000000
                                        }
                                    }
                                }
                            }
                            JOINT LeftFinger1
                            {
                                OFFSET   8.364480   0.000000   3.252850
                                CHANNELS 3 Zrotation Xrotation Yrotation
                                JOINT LeftFinger11
                                {
                                    OFFSET   4.646930   0.000000   0.000000
                                    CHANNELS 3 Zrotation Xrotation Yrotation
                                    JOINT LeftFinger12
                                    {
                                        OFFSET   2.323460   0.000000   0.000000
                                        CHANNELS 3 Zrotation Xrotation Yrotation
                                        End Site
                                        {
                                            OFFSET   2.273050   0.000000   0.000000
                                        }
                                    }
                                }
                            }
                            JOINT LeftFinger2
                            {
                                OFFSET   8.364490   0.000015   1.078090
                                CHANNELS 3 Zrotation Xrotation Yrotation
                                JOINT LeftFinger21
                                {
                                    OFFSET   5.111620   0.000000   0.000000
                                    CHANNELS 3 Zrotation Xrotation Yrotation
                                    JOINT LeftFinger22
                                    {
                                        OFFSET   2.788160   0.000016   0.000000
                                        CHANNELS 3 Zrotation Xrotation Yrotation
                                        End Site
                                        {
                                            OFFSET   2.727660   0.000000   0.000000
                                        }
                                    }
                                }
                            }
                            JOINT LeftFinger3
                            {
                                OFFSET   7.899780   0.000017  -1.078090
                                CHANNELS 3 Zrotation Xrotation Yrotation
                                JOINT LeftFinger31
                                {
                                    OFFSET   4.646930   0.000000   0.000000
                                    CHANNELS 3 Zrotation Xrotation Yrotation
                                    JOINT LeftFinger32
                                    {
                                        OFFSET   2.323470   0.000000   0.000000
                                        CHANNELS 3 Zrotation Xrotation Yrotation
                                        End Site
                                        {
                                            OFFSET   2.273050   0.000000   0.000000
                                        }
                                    }
                                }
                            }
                            JOINT LeftFinger4
                            {
                                OFFSET   7.435090   0.000000  -3.252850
                                CHANNELS 3 Zrotation Xrotation Yrotation
                                JOINT LeftFinger41
                                {
                                    OFFSET   3.717550   0.000000   0.000000
                                    CHANNELS 3 Zrotation Xrotation Yrotation
                                    JOINT LeftFinger42
                                    {
                                        OFFSET   1.858770   0.000000   0.000000
                                        CHANNELS 3 Zrotation Xrotation Yrotation
                                        End Site
                                        {
                                            OFFSET   1.818440   0.000000   0.000000
                                        }
                                    }
                                }
                            }
                        }
                    }
                }
            }
            JOINT RightCollar
            {
                OFFSET  -3.911900  19.017000  -0.467063
                CHANNELS 3 Zrotation Xrotation Yrotation
                JOINT RightShoulder
                {
                    OFFSET -10.383700   0.000019   0.000000
                    CHANNELS 3 Zrotation Xrotation Yrotation
                    JOINT RightElbow
                    {
                        OFFSET -26.662100   0.001175   0.000102
                        CHANNELS 3 Zrotation Xrotation Yrotation
                        JOINT RightWrist
                        {
                            OFFSET -28.869000   0.000016  -0.000079
                            CHANNELS 3 Zrotation Xrotation Yrotation
                            JOINT RightFinger0
                            {
                                OFFSET  -2.044660  -2.323490   3.252850
                                CHANNELS 3 Zrotation Xrotation Yrotation
                                JOINT RightFinger01
                                {
                                    OFFSET  -3.088140   0.000000   0.000000
                                    CHANNELS 3 Zrotation Xrotation Yrotation
                                    JOINT RightFinger02
                                    {
                                        OFFSET  -2.639460   0.000000   0.000000
                                        CHANNELS 3 Zrotation Xrotation Yrotation
                                        End Site
                                        {
                                            OFFSET  -2.582190   0.000000   0.000000
                                        }
                                    }
                                }
                            }
                            JOINT RightFinger1
                            {
                                OFFSET  -8.364480   0.000000   3.252850
                                CHANNELS 3 Zrotation Xrotation Yrotation
                                JOINT RightFinger11
                                {
                                    OFFSET  -4.646930   0.000000   0.000000
                                    CHANNELS 3 Zrotation Xrotation Yrotation
                                    JOINT RightFinger12
                                    {
                                        OFFSET  -2.323470   0.000000   0.000000
                                        CHANNELS 3 Zrotation Xrotation Yrotation
                                        End Site
                                        {
                                            OFFSET  -2.273050   0.000000   0.000000
                                        }
                                    }
                                }
                            }
                            JOINT RightFinger2
                            {
                                OFFSET  -8.364480   0.000000   1.078090
                                CHANNELS 3 Zrotation Xrotation Yrotation
                                JOINT RightFinger21
                                {
                                    OFFSET  -5.111620   0.000000   0.000000
                                    CHANNELS 3 Zrotation Xrotation Yrotation
                                    JOINT RightFinger22
                                    {
                                        OFFSET  -2.788160   0.000000   0.000000
                                        CHANNELS 3 Zrotation Xrotation Yrotation
                                        End Site
                                        {
                                            OFFSET  -2.727660   0.000000   0.000000
                                        }
                                    }
                                }
                            }
                            JOINT RightFinger3
                            {
                                OFFSET  -7.899780   0.000000  -1.078090
                                CHANNELS 3 Zrotation Xrotation Yrotation
                                JOINT RightFinger31
                                {
                                    OFFSET  -4.646930   0.000000   0.000000
                                    CHANNELS 3 Zrotation Xrotation Yrotation
                                    JOINT RightFinger32
                                    {
                                        OFFSET  -2.323470   0.000000   0.000000
                                        CHANNELS 3 Zrotation Xrotation Yrotation
                                        End Site
                                        {
                                            OFFSET  -2.273050   0.000000   0.000000
                                        }
                                    }
                                }
                            }
                            JOINT RightFinger4
                            {
                                OFFSET  -7.435090   0.000000  -3.252850
                                CHANNELS 3 Zrotation Xrotation Yrotation
                                JOINT RightFinger41
                                {
                                    OFFSET  -3.717550   0.000000   0.000000
                                    CHANNELS 3 Zrotation Xrotation Yrotation
                                    JOINT RightFinger42
                                    {
                                        OFFSET  -1.858770   0.000000   0.000000
                                        CHANNELS 3 Zrotation Xrotation Yrotation
                                        End Site
                                        {
                                            OFFSET  -1.818440   0.000000   0.000000
                                        }
                                    }
                                }
                            }
                        }
                    }
                }
            }
        }
    }
    JOINT LeftHip
    {
        OFFSET   9.783040   0.000000   0.000000
        CHANNELS 3 Zrotation Xrotation Yrotation
        JOINT LeftKnee
        {
            OFFSET   0.000032 -41.789100  -0.002222
            CHANNELS 3 Zrotation Xrotation Yrotation
            JOINT LeftAnkle
            {
                OFFSET   0.000087 -41.133200  -0.000135
                CHANNELS 3 Zrotation Xrotation Yrotation
                JOINT LeftToe
                {
                    OFFSET   0.000000  -6.358960  14.674500
                    CHANNELS 3 Zrotation Xrotation Yrotation
                    End Site
                    {
                        OFFSET   0.000000   0.000000   3.913200
                    }
                }
            }
        }
    }
    JOINT RightHip
    {
        OFFSET  -9.783040   0.000000   0.000000
        CHANNELS 3 Zrotation Xrotation Yrotation
        JOINT RightKnee
        {
            OFFSET   0.000047 -41.789100  -0.000896
            CHANNELS 3 Zrotation Xrotation Yrotation
            JOINT RightAnkle
            {
                OFFSET  -0.000117 -41.133300  -0.000248
                CHANNELS 3 Zrotation Xrotation Yrotation
                JOINT RightToe
                {
                    OFFSET   0.000000  -6.358970  14.674500
                    CHANNELS 3 Zrotation Xrotation Yrotation
                    End Site
                    {
                        OFFSET   0.000000   0.000000   3.913200
                    }
                }
            }
        }
    }
}
MOTION
Frames: 4
Frame Time:   0.016667
 -4.705740  88.728500   0.389444   1.856440 -18.714900   6.476120   2.155290  10.205000  -0.788531   4.567010  20.370900  -2.023110   3.328290   4.071070  -0.236848   5.545120   8.171970 -15.088700  -4.835440   0.352071   8.829420 -77.186700  19.836700  -6.877890  -0.887394  -2.343710 -14.562700   7.049440 -13.755700  -5.921860  37.822300  22.547600 -58.965700 -24.364400   0.001601   0.000751  -7.182170   0.000151   0.001415 -27.012200  -0.251149   0.492534 -22.101700   0.001177  -0.000943 -15.471200   0.000814  -0.000317 -28.265200  -4.046310   7.465850 -36.656100   0.002155  -0.000789 -24.413000   0.000000  -0.004520 -27.006100  -3.879420   7.550190 -28.102300  -0.000383  -0.002580 -18.716100   0.000000  -0.000119 -30.340900  -4.296580   7.311800 -45.922300   0.003131   0.000122 -30.584300   0.000716   0.002203   7.035010   5.705350  12.131800  57.929300   6.440150  63.247700 -16.347900 -26.924700  86.975200 -86.183600  -2.093060  58.988100 -59.039200  54.334100 108.292000 -15.695000   0.001466   0.000448 -12.847500  -0.003990   0.002242  44.210500  -0.127920  -0.131513  36.172400   0.006023  -0.008564  26.162900  -0.004208  -0.009693  28.600800  -1.922100  -3.520300  38.304400   0.000517  -0.001502  25.510800   0.000478  -0.000864  25.368500  -4.256730  -8.896850  25.700100   0.002100  -0.004413  17.116300   0.000900  -0.003124  28.772200  -7.106780 -12.696700  44.346400   0.004923  -0.000427  29.534700  -0.000138  -0.006303   4.924800  10.934300  -3.657170   2.989850  18.245500   8.857900  -8.159500 -10.222300  -2.686090   0.000000   0.000000   0.000000   2.703230  20.463400  -4.949140   0.814760   2.027480 -11.651500  -2.627930  -4.916020  -0.536304   0.000000   0.000000   0.000000
 -4.713860  88.722600   0.390591   1.839370 -18.727400   6.476180   2.148450  10.194500  -0.817065   4.557930  20.348900  -2.079720   3.316510   4.094050  -0.237068   5.527120   8.218960 -15.082100  -4.820600   0.370051   8.834420 -77.219900  19.735500  -6.801300  -0.888463  -2.243170 -14.587500   7.006110 -13.676700  -5.934110  37.818900  22.591300 -59.018600 -24.389800   0.001578   0.000782  -7.193940   0.000138   0.001372 -27.009400  -0.263504   0.516772 -22.099500   0.001163  -0.000931 -15.469700   0.000784  -0.000337 -28.265200  -4.046060   7.466070 -36.638500   0.002157  -0.000785 -24.401300   0.000000  -0.004506 -27.002400  -3.879190   7.551920 -28.085500  -0.000354  -0.002593 -18.705000   0.000000  -0.000133 -30.322400  -4.296580   7.314850 -45.894800   0.003108   0.000113 -30.565900   0.000735   0.002159   7.033030   5.739370  12.125500  57.922400   6.435700  63.276100 -16.385900 -26.975300  86.849000 -86.361300  -2.052890  58.878400 -59.039300  54.334100 108.292000 -15.695000   0.001459   0.000481 -12.847500  -0.004009   0.002214  44.284200  -0.120601  -0.123621  36.232700   0.006153  -0.008718  26.220000  -0.004157  -0.009886  28.612700  -1.910720  -3.498480  38.519400   0.000466  -0.001569  25.653900   0.000481  -0.000915  25.503100  -4.214020  -8.748150  25.827400   0.002101  -0.004474  17.201100   0.000872  -0.003150  28.897400  -7.057980 -12.530500  44.527500   0.004957  -0.000453  29.655300  -0.000121  -0.006376   4.957870  10.895500  -3.660490   2.984210  18.337100   8.832680  -8.159240 -10.268100  -2.672820   0.000000   0.000000   0.000000   2.734390  20.470500  -4.941260   0.814573   2.031750 -11.651000  -2.629990  -4.922030  -0.554601  -0.000000   0.000000  -0.000000
 -4.718720  88.717700   0.391040   1.824970 -18.735300   6.473570   2.138240  10.185300  -0.845465   4.541970  20.329500  -2.135490   3.310360   4.115960  -0.237234   5.516940   8.262780 -15.025200  -4.808070   0.387030   8.836330 -77.233200  19.692400  -6.735040  -0.888114  -2.158520 -14.595000   6.967260 -13.588700  -5.940510  37.815100  22.606500 -59.037900 -24.403000   0.001551   0.000813  -7.201520   0.000129   0.001326 -26.997500  -0.280016   0.549482 -22.089900   0.001149  -0.000920 -15.462900   0.000751  -0.000358 -28.265100  -4.045800   7.467580 -36.599400   0.002159  -0.000778 -24.375200   0.000000  -0.004492 -26.994600  -3.878920   7.555920 -28.051300  -0.000323  -0.002606 -18.682200   0.000000  -0.000147 -30.286100  -4.296540   7.321230 -45.841100   0.003085   0.000102 -30.530100   0.000749   0.002114   7.029720   5.762620  12.116000  57.913100   6.430750  63.306700 -16.437900 -26.995800  86.638300 -86.534100  -1.962640  58.798800 -59.039400  54.334000 108.292000 -15.695000   0.001451   0.000515 -12.847500  -0.004028   0.002186  44.307500  -0.081644  -0.083311  36.251700   0.006285  -0.008871  26.238100  -0.004105  -0.010078  28.619300  -1.868880  -3.420410  38.581200   0.000414  -0.001638  25.695000   0.000483  -0.000966  25.534300  -4.167380  -8.649430  25.849700   0.002101  -0.004532  17.215900   0.000845  -0.003175  28.941500  -6.988550 -12.408700  44.553400   0.004989  -0.000477  29.672500  -0.000102  -0.006451   4.980820  10.858600  -3.672790   2.975490  18.419900   8.821120  -8.157670 -10.309500  -2.653610   0.000000   0.000000  -0.000000   2.756040  20.475500  -4.937120   0.814532   2.037800 -11.649700  -2.630970  -4.930120  -0.563656  -0.000000   0.000000  -0.000000
 -4.719310  88.713900   0.391412   1.813270 -18.733600   6.463500   2.122810  10.174700  -0.873983   4.515280  20.307500  -2.190450   3.317880   4.131790  -0.237312   5.528370   8.292280 -14.871500  -4.806040   0.412875   8.842210 -77.220100  19.693900  -6.689780  -0.880464  -2.106940 -14.569800   6.942920 -13.509200  -5.938200  37.810500  22.578800 -58.997500 -24.402600   0.001515   0.000785  -7.203510   0.000133   0.001280 -26.970100  -0.306741   0.602776 -22.067800   0.001135  -0.000910 -15.447400   0.000715  -0.000376 -28.264800  -4.045500   7.473000 -36.541500   0.002157  -0.000767 -24.336700   0.000000  -0.004482 -26.984300  -3.878640   7.562170 -28.006400  -0.000293  -0.002619 -18.652300   0.000000  -0.000161 -30.243400  -4.296450   7.329800 -45.777700   0.003064   0.000092 -30.487900   0.000760   0.002067   7.023440   5.788520  12.113100  57.891600   6.425260  63.322500 -16.537500 -26.967400  86.450800 -86.613500  -1.821310  58.725100 -59.039400  54.334000 108.292000 -15.695000   0.001445   0.000499 -12.847500  -0.004048   0.002157  44.348300   0.018492   0.018979  36.284900   0.006420  -0.009015  26.269600  -0.004054  -0.010268  28.626800  -1.778090  -3.253420  38.615700   0.000358  -0.001718  25.718000   0.000478  -0.000996  25.533800  -4.163550  -8.644710  25.848400   0.002102  -0.004580  17.215000   0.000821  -0.003201  28.946000  -6.965520 -12.373300  44.549700   0.005032  -0.000492  29.670000  -0.000094  -0.006517   4.989160  10.821700  -3.700430   2.963500  18.494000   8.823840  -8.152070 -10.349800  -2.620870   0.000000   0.000000   0.000000   2.767580  20.471200  -4.954340   0.816053   2.047730 -11.645800  -2.629550  -4.944440  -0.543391   0.000000   0.000000   0.000000
